<?xml version="1.0" encoding="UTF-8"?><svg id="Layer_2" xmlns="http://www.w3.org/2000/svg" viewBox="0 0 1193.14 370.29"><defs><style>.cls-1{fill:#20212b;}.cls-2{fill:#8f00ff;}</style></defs><g id="Layer_1-2"><polygon class="cls-1" points="123.43 0 123.43 246.86 205.71 246.86 205.71 82.29 329.14 82.29 329.14 0 205.71 0 123.43 0"/><polygon class="cls-1" points="534.86 164.57 452.57 164.57 452.57 0 370.29 0 370.29 246.86 452.57 246.86 534.86 246.86 534.86 370.29 617.14 370.29 617.14 246.86 617.14 0 534.86 0 534.86 164.57"/><polygon class="cls-1" points="822.86 0 740.57 0 658.29 0 658.29 246.86 740.57 246.86 781.71 246.86 781.71 164.57 740.57 164.57 740.57 82.29 822.86 82.29 822.86 246.86 905.14 246.86 905.14 0 864 0 822.86 0"/><polygon class="cls-1" points="1028.57 0 946.29 0 946.29 246.86 1028.57 246.86 1028.57 82.29 1110.86 82.29 1110.86 246.86 1193.14 246.86 1193.14 82.29 1193.14 0 1028.57 0"/><rect class="cls-2" y="164.57" width="82.29" height="82.29"/></g></svg>